<svg xmlns="http://www.w3.org/2000/svg" xmlns:xlink="http://www.w3.org/1999/xlink" width="500" zoomAndPan="magnify" viewBox="0 0 375 374.999991" height="500" preserveAspectRatio="xMidYMid meet" version="1.0"><path fill="#e4e4e4" d="M 265.625 359.375 C 291.667969 359.375 313.800781 350.261719 332.03125 332.03125 C 350.261719 313.800781 359.375 291.667969 359.375 265.625 L 335.9375 265.625 C 335.9375 285.15625 329.101562 301.757812 315.429688 315.429688 C 301.757812 329.101562 285.15625 335.9375 265.625 335.9375 Z M 15.625 109.375 L 39.0625 109.375 C 39.0625 89.84375 45.898438 73.242188 59.570312 59.570312 C 73.242188 45.898438 89.84375 39.0625 109.375 39.0625 L 109.375 15.625 C 83.332031 15.625 61.199219 24.738281 42.96875 42.96875 C 24.738281 61.199219 15.625 83.332031 15.625 109.375 Z M 55.078125 319.921875 C 29.816406 294.660156 17.1875 264.324219 17.1875 228.90625 C 17.1875 193.488281 29.816406 163.152344 55.078125 137.890625 L 112.890625 79.6875 C 119.660156 72.917969 127.929688 69.53125 137.695312 69.53125 C 147.460938 69.53125 155.730469 72.917969 162.5 79.6875 C 163.542969 80.46875 164.714844 81.769531 166.015625 83.59375 L 169.921875 89.0625 L 215.234375 43.75 C 222.003906 36.980469 230.273438 33.59375 240.039062 33.59375 C 249.804688 33.59375 258.074219 36.980469 264.84375 43.75 C 266.40625 45.574219 267.773438 47.394531 268.945312 49.21875 C 270.117188 51.042969 270.964844 52.605469 271.484375 53.90625 C 277.996094 47.394531 286.003906 44.269531 295.507812 44.53125 C 305.011719 44.792969 313.152344 48.308594 319.921875 55.078125 C 325.128906 60.285156 328.253906 66.730469 329.296875 74.414062 C 330.339844 82.097656 329.167969 89.714844 325.78125 97.265625 C 327.863281 98.046875 329.816406 99.089844 331.640625 100.390625 C 333.464844 101.691406 335.15625 103.125 336.71875 104.6875 C 343.488281 111.457031 346.875 119.726562 346.875 129.492188 C 346.875 139.257812 343.488281 147.527344 336.71875 154.296875 L 326.953125 164.0625 C 328.777344 164.84375 330.535156 165.886719 332.226562 167.1875 C 333.917969 168.488281 335.417969 169.792969 336.71875 171.09375 C 343.488281 177.863281 346.941406 186.132812 347.070312 195.898438 C 347.199219 205.664062 343.75 213.933594 336.71875 220.703125 L 237.109375 319.921875 C 211.847656 345.183594 181.511719 357.8125 146.09375 357.8125 C 110.675781 357.8125 80.339844 345.183594 55.078125 319.921875 Z M 71.484375 303.515625 C 81.902344 313.933594 93.554688 321.679688 106.445312 326.757812 C 119.335938 331.835938 132.550781 334.375 146.09375 334.375 C 159.636719 334.375 172.851562 331.835938 185.742188 326.757812 C 198.632812 321.679688 210.285156 313.933594 220.703125 303.515625 L 319.921875 203.90625 C 322.265625 201.5625 323.4375 198.761719 323.4375 195.507812 C 323.4375 192.253906 322.265625 189.582031 319.921875 187.5 C 317.578125 185.15625 314.84375 183.984375 311.71875 183.984375 C 308.59375 183.984375 305.859375 185.15625 303.515625 187.5 L 248.4375 242.578125 L 231.640625 226.171875 L 319.921875 137.890625 C 322.265625 135.546875 323.4375 132.746094 323.4375 129.492188 C 323.4375 126.238281 322.265625 123.4375 319.921875 121.09375 C 317.578125 118.75 314.84375 117.578125 311.71875 117.578125 C 308.59375 117.578125 305.859375 118.75 303.515625 121.09375 L 226.171875 198.4375 L 209.765625 182.03125 L 303.515625 87.890625 C 305.859375 85.546875 306.964844 82.746094 306.835938 79.492188 C 306.707031 76.238281 305.597656 73.566406 303.515625 71.484375 C 301.171875 69.140625 298.4375 67.96875 295.3125 67.96875 C 292.1875 67.96875 289.453125 69.140625 287.109375 71.484375 L 192.96875 165.234375 L 176.5625 148.828125 L 248.4375 76.953125 C 250.78125 74.609375 251.886719 71.808594 251.757812 68.554688 C 251.628906 65.300781 250.519531 62.628906 248.4375 60.546875 C 246.09375 58.203125 243.292969 57.03125 240.039062 57.03125 C 236.785156 57.03125 233.984375 58.203125 231.640625 60.546875 L 128.515625 163.671875 C 133.984375 177.214844 135.675781 191.015625 133.59375 205.078125 C 131.511719 219.140625 125.519531 231.640625 115.625 242.578125 L 99.21875 226.171875 C 107.550781 216.535156 111.71875 205.46875 111.71875 192.96875 C 111.71875 180.46875 107.550781 169.402344 99.21875 159.765625 L 146.09375 112.890625 C 148.4375 110.546875 149.542969 107.746094 149.414062 104.492188 C 149.285156 101.238281 148.175781 98.566406 146.09375 96.484375 C 143.75 94.140625 141.015625 92.96875 137.890625 92.96875 C 134.765625 92.96875 132.03125 94.140625 129.6875 96.484375 L 71.484375 154.296875 C 61.066406 164.714844 53.320312 176.367188 48.242188 189.257812 C 43.164062 202.148438 40.625 215.363281 40.625 228.90625 C 40.625 242.449219 43.164062 255.664062 48.242188 268.554688 C 53.320312 281.445312 61.066406 293.097656 71.484375 303.515625 Z M 71.484375 303.515625 " fill-opacity="1" fill-rule="nonzero"/></svg>