<svg xmlns="http://www.w3.org/2000/svg" xmlns:xlink="http://www.w3.org/1999/xlink" width="500" zoomAndPan="magnify" viewBox="0 0 375 374.999991" height="500" preserveAspectRatio="xMidYMid meet" version="1.0"><defs><clipPath id="e3d9e3529f"><path d="M 31.617188 18.75 L 343.617188 18.75 L 343.617188 356.25 L 31.617188 356.25 Z M 31.617188 18.75 " clip-rule="nonzero"/></clipPath></defs><g clip-path="url(#e3d9e3529f)"><path fill="#38b6ff" d="M 187.542969 18.75 C 182.800781 18.75 178.058594 19.914062 173.96875 22.25 L 45.230469 96.507812 C 36.914062 101.3125 31.730469 110.40625 31.730469 120.011719 L 31.730469 254.734375 C 31.730469 264.472656 36.914062 273.4375 45.230469 278.238281 L 79.023438 297.710938 C 95.390625 305.757812 101.230469 305.746094 108.632812 305.746094 C 132.925781 305.746094 146.820312 291.082031 146.820312 265.636719 L 146.820312 126.628906 C 146.820312 124.550781 145.140625 122.851562 143.0625 122.851562 L 126.824219 122.851562 C 124.617188 122.851562 123.046875 124.550781 123.046875 126.628906 L 123.046875 265.511719 C 123.046875 276.933594 111.238281 288.09375 92.140625 278.617188 L 56.796875 258.234375 C 55.5 257.585938 54.71875 256.164062 54.71875 254.734375 L 54.71875 120.136719 C 54.71875 118.578125 55.5 117.265625 56.796875 116.484375 L 185.535156 42.253906 C 186.707031 41.472656 188.273438 41.472656 189.570312 42.253906 L 318.308594 116.484375 C 319.609375 117.265625 320.390625 118.582031 320.390625 120.011719 L 320.390625 254.734375 C 320.390625 256.164062 319.605469 257.585938 318.4375 258.234375 L 189.570312 332.621094 C 188.402344 333.269531 186.707031 333.269531 185.535156 332.621094 L 152.402344 313.023438 C 151.492188 312.375 150.214844 312.25 149.304688 312.769531 C 140.082031 317.960938 138.394531 318.605469 129.820312 321.59375 C 127.742188 322.242188 124.492188 323.535156 130.988281 327.171875 L 173.96875 352.625 C 178.125 354.960938 182.8125 356.25 187.492188 356.25 C 192.296875 356.25 196.957031 354.960938 201.113281 352.625 L 330.003906 278.238281 C 338.320312 273.4375 343.503906 264.472656 343.503906 254.734375 L 343.503906 120.136719 C 343.503906 110.402344 338.320312 101.4375 330.003906 96.632812 L 201.113281 22.25 C 197.023438 19.914062 192.28125 18.75 187.542969 18.75 Z M 222.175781 122.671875 C 185.410156 122.671875 163.464844 138.238281 163.464844 164.199219 C 163.464844 192.367188 185.265625 200.144531 220.601562 203.648438 C 262.820312 207.804688 266.066406 214.054688 266.066406 222.359375 C 266.066406 236.640625 254.527344 242.746094 227.375 242.746094 C 193.210938 242.746094 185.671875 234.164062 183.203125 217.289062 C 182.941406 215.472656 181.394531 214.171875 179.574219 214.171875 L 162.804688 214.171875 C 160.726562 214.171875 159.175781 215.875 159.175781 217.820312 C 159.175781 239.5 170.996094 265.308594 227.375 265.308594 C 268.164062 265.308594 291.542969 249.234375 291.542969 221.195312 C 291.542969 193.414062 272.703125 186.003906 233.210938 180.679688 C 193.070312 175.488281 189.039062 172.761719 189.039062 163.414062 C 189.039062 155.625 192.554688 145.386719 222.175781 145.386719 C 248.542969 145.386719 258.414062 151.082031 262.441406 168.867188 C 262.828125 170.554688 264.25 171.855469 266.066406 171.855469 L 282.839844 171.855469 C 283.878906 171.855469 284.773438 171.34375 285.554688 170.5625 C 286.203125 169.914062 286.597656 168.867188 286.46875 167.699219 C 283.867188 137.066406 263.484375 122.671875 222.175781 122.671875 Z M 222.175781 122.671875 " fill-opacity="1" fill-rule="nonzero"/></g></svg>