<svg xmlns="http://www.w3.org/2000/svg" xmlns:xlink="http://www.w3.org/1999/xlink" width="500" zoomAndPan="magnify" viewBox="0 0 375 374.999991" height="500" preserveAspectRatio="xMidYMid meet" version="1.0"><defs><clipPath id="0b71d4aa15"><path d="M 67.839844 85 L 307.089844 85 L 307.089844 356.25 L 67.839844 356.25 Z M 67.839844 85 " clip-rule="nonzero"/></clipPath><clipPath id="3c93b23812"><path d="M 124 18.75 L 161 18.75 L 161 65 L 124 65 Z M 124 18.75 " clip-rule="nonzero"/></clipPath><clipPath id="fd922b0a41"><path d="M 167 18.75 L 204 18.75 L 204 65 L 167 65 Z M 167 18.75 " clip-rule="nonzero"/></clipPath><clipPath id="f70437859c"><path d="M 211 18.75 L 248 18.75 L 248 65 L 211 65 Z M 211 18.75 " clip-rule="nonzero"/></clipPath></defs><g clip-path="url(#0b71d4aa15)"><path fill="#38b6ff" d="M 187.363281 356.242188 L 89.746094 329.136719 L 67.992188 85.078125 L 307.023438 85.074219 L 285.257812 329.09375 L 187.367188 356.238281 Z M 187.363281 356.242188 " fill-opacity="1" fill-rule="nonzero"/></g><path fill="#5ce1e6" d="M 266.613281 313.558594 L 285.222656 105.03125 L 187.511719 105.03125 L 187.511719 335.488281 L 266.613281 313.554688 Z M 266.613281 313.558594 " fill-opacity="1" fill-rule="nonzero"/><path fill="#ebebeb" d="M 117.863281 195.550781 L 120.546875 225.476562 L 187.511719 225.476562 L 187.511719 195.550781 Z M 117.863281 195.550781 " fill-opacity="1" fill-rule="nonzero"/><path fill="#ebebeb" d="M 112.472656 134.957031 L 115.195312 164.894531 L 187.511719 164.894531 L 187.511719 134.957031 Z M 112.472656 134.957031 " fill-opacity="1" fill-rule="nonzero"/><path fill="#ebebeb" d="M 187.511719 273.285156 L 187.382812 273.324219 L 154.054688 264.316406 L 151.921875 240.445312 L 121.882812 240.445312 L 126.074219 287.445312 L 187.371094 304.46875 L 187.511719 304.429688 Z M 187.511719 273.285156 " fill-opacity="1" fill-rule="nonzero"/><g clip-path="url(#3c93b23812)"><path fill="#38b6ff" d="M 124.25 18.75 L 160.492188 18.75 L 160.492188 33.910156 L 139.40625 33.910156 L 139.40625 49.070312 L 160.492188 49.070312 L 160.492188 64.230469 L 124.25 64.230469 Z M 124.25 18.75 " fill-opacity="1" fill-rule="nonzero"/></g><g clip-path="url(#fd922b0a41)"><path fill="#38b6ff" d="M 167.742188 18.75 L 203.984375 18.75 L 203.984375 31.933594 L 182.902344 31.933594 L 182.902344 34.570312 L 203.984375 34.570312 L 203.984375 64.890625 L 167.742188 64.890625 L 167.742188 51.050781 L 188.832031 51.050781 L 188.832031 48.410156 L 167.742188 48.410156 Z M 167.742188 18.75 " fill-opacity="1" fill-rule="nonzero"/></g><g clip-path="url(#f70437859c)"><path fill="#38b6ff" d="M 211.238281 18.75 L 247.480469 18.75 L 247.480469 31.933594 L 226.390625 31.933594 L 226.390625 34.570312 L 247.480469 34.570312 L 247.480469 64.890625 L 211.238281 64.890625 L 211.238281 51.050781 L 232.320312 51.050781 L 232.320312 48.410156 L 211.238281 48.410156 Z M 211.238281 18.75 " fill-opacity="1" fill-rule="nonzero"/></g><path fill="#ffffff" d="M 256.972656 195.550781 L 262.371094 134.957031 L 187.410156 134.957031 L 187.410156 164.894531 L 229.574219 164.894531 L 226.859375 195.550781 L 187.410156 195.550781 L 187.410156 225.476562 L 224.261719 225.476562 L 220.785156 264.296875 L 187.410156 273.3125 L 187.410156 304.449219 L 248.753906 287.445312 L 249.207031 282.386719 L 256.242188 203.582031 Z M 256.972656 195.550781 " fill-opacity="1" fill-rule="nonzero"/></svg>