<svg xmlns="http://www.w3.org/2000/svg" xmlns:xlink="http://www.w3.org/1999/xlink" width="500" zoomAndPan="magnify" viewBox="0 0 375 374.999991" height="500" preserveAspectRatio="xMidYMid meet" version="1.0"><defs><clipPath id="4f11feb35a"><path d="M 76.554688 26.710938 L 298.554688 26.710938 L 298.554688 348.460938 L 76.554688 348.460938 Z M 76.554688 26.710938 " clip-rule="nonzero"/></clipPath></defs><g clip-path="url(#4f11feb35a)"><path fill="#00c4f0" d="M 137.683594 26.695312 C 103.933594 26.695312 76.574219 54.054688 76.574219 87.804688 C 76.574219 108.402344 86.765625 126.617188 102.378906 137.6875 C 86.765625 148.761719 76.574219 166.976562 76.574219 187.574219 C 76.574219 208.171875 86.765625 226.390625 102.378906 237.460938 C 86.765625 248.53125 76.574219 266.75 76.574219 287.347656 C 76.574219 321.097656 103.933594 348.457031 137.683594 348.457031 C 171.433594 348.457031 198.792969 321.097656 198.792969 287.347656 L 198.792969 234.902344 C 209.324219 243.515625 222.785156 248.683594 237.453125 248.683594 C 271.203125 248.683594 298.5625 221.324219 298.5625 187.574219 C 298.5625 166.976562 288.371094 148.761719 272.757812 137.6875 C 288.371094 126.617188 298.5625 108.402344 298.5625 87.804688 C 298.5625 54.054688 271.203125 26.695312 237.453125 26.695312 Z M 176.34375 226.234375 L 137.683594 226.234375 C 116.332031 226.234375 99.023438 208.925781 99.023438 187.574219 C 99.023438 166.222656 116.332031 148.914062 137.683594 148.914062 L 176.34375 148.914062 Z M 137.683594 126.464844 L 176.34375 126.464844 L 176.34375 49.140625 L 137.683594 49.140625 C 116.332031 49.140625 99.023438 66.453125 99.023438 87.804688 C 99.023438 109.15625 116.332031 126.464844 137.683594 126.464844 Z M 276.113281 87.804688 C 276.113281 109.140625 258.828125 126.441406 237.496094 126.464844 L 198.792969 126.464844 L 198.792969 49.140625 L 237.453125 49.140625 C 258.804688 49.140625 276.113281 66.453125 276.113281 87.804688 Z M 198.792969 187.527344 C 198.820312 166.210938 216.09375 148.9375 237.40625 148.914062 L 237.492188 148.914062 C 258.824219 148.933594 276.113281 166.234375 276.113281 187.574219 C 276.113281 208.925781 258.804688 226.234375 237.453125 226.234375 C 216.117188 226.234375 198.820312 208.953125 198.792969 187.621094 Z M 137.683594 248.683594 C 116.332031 248.683594 99.023438 265.992188 99.023438 287.347656 C 99.023438 308.699219 116.332031 326.007812 137.683594 326.007812 C 159.035156 326.007812 176.34375 308.699219 176.34375 287.347656 L 176.34375 248.683594 Z M 137.683594 248.683594 " fill-opacity="1" fill-rule="evenodd"/></g></svg>