<svg xmlns="http://www.w3.org/2000/svg" xmlns:xlink="http://www.w3.org/1999/xlink" width="500" zoomAndPan="magnify" viewBox="0 0 375 374.999991" height="500" preserveAspectRatio="xMidYMid meet" version="1.0"><defs><clipPath id="c9292d8ed9"><path d="M 75.480469 91 L 299.730469 91 L 299.730469 345.273438 L 75.480469 345.273438 Z M 75.480469 91 " clip-rule="nonzero"/></clipPath><clipPath id="9401eb91f9"><path d="M 96 29.523438 L 139 29.523438 L 139 73 L 96 73 Z M 96 29.523438 " clip-rule="nonzero"/></clipPath><clipPath id="0a1eac65e6"><path d="M 144 29.523438 L 184 29.523438 L 184 73 L 144 73 Z M 144 29.523438 " clip-rule="nonzero"/></clipPath><clipPath id="2bb235f45e"><path d="M 189 29.523438 L 238 29.523438 L 238 73 L 189 73 Z M 189 29.523438 " clip-rule="nonzero"/></clipPath><clipPath id="23448c6ba9"><path d="M 244 29.523438 L 280 29.523438 L 280 73 L 244 73 Z M 244 29.523438 " clip-rule="nonzero"/></clipPath></defs><g clip-path="url(#c9292d8ed9)"><path fill="#38b6ff" d="M 299.671875 91.574219 L 279.261719 319.867188 L 187.507812 345.261719 L 96.011719 319.902344 L 75.621094 91.574219 L 299.667969 91.570312 L 299.675781 91.570312 Z M 299.671875 91.574219 " fill-opacity="1" fill-rule="nonzero"/></g><path fill="#5ce1e6" d="M 187.648438 325.851562 L 261.792969 305.332031 L 279.234375 110.246094 L 187.648438 110.242188 Z M 187.648438 325.851562 " fill-opacity="1" fill-rule="nonzero"/><path fill="#ebebeb" d="M 147.96875 166.25 L 187.648438 166.25 L 187.648438 138.242188 L 117.316406 138.242188 L 117.988281 145.757812 L 124.878906 222.929688 L 187.648438 222.929688 L 187.648438 194.929688 L 150.535156 194.929688 Z M 147.96875 166.25 " fill-opacity="1" fill-rule="nonzero"/><path fill="#ebebeb" d="M 154.292969 236.929688 L 126.132812 236.929688 L 130.0625 280.90625 L 187.519531 296.828125 L 187.648438 296.792969 L 187.648438 267.65625 L 187.527344 267.691406 L 156.289062 259.265625 L 154.292969 236.933594 Z M 154.292969 236.929688 " fill-opacity="1" fill-rule="nonzero"/><g clip-path="url(#9401eb91f9)"><path fill="#38b6ff" d="M 96.46875 29.523438 L 110.722656 29.523438 L 110.722656 43.585938 L 123.761719 43.585938 L 123.761719 29.523438 L 138.015625 29.523438 L 138.015625 72.101562 L 123.761719 72.101562 L 123.761719 57.84375 L 110.722656 57.84375 L 110.722656 72.101562 L 96.46875 72.101562 Z M 96.46875 29.523438 " fill-opacity="1" fill-rule="nonzero"/></g><g clip-path="url(#0a1eac65e6)"><path fill="#38b6ff" d="M 156.761719 43.644531 L 144.214844 43.644531 L 144.214844 29.523438 L 183.574219 29.523438 L 183.574219 43.644531 L 171.015625 43.644531 L 171.015625 72.101562 L 156.761719 72.101562 Z M 156.761719 43.644531 " fill-opacity="1" fill-rule="nonzero"/></g><g clip-path="url(#2bb235f45e)"><path fill="#38b6ff" d="M 189.820312 29.523438 L 204.679688 29.523438 L 213.820312 44.484375 L 222.957031 29.523438 L 237.824219 29.523438 L 237.824219 72.101562 L 223.632812 72.101562 L 223.632812 50.996094 L 213.820312 66.136719 L 213.574219 66.136719 L 203.765625 50.996094 L 203.765625 72.101562 L 189.820312 72.101562 Z M 189.820312 29.523438 " fill-opacity="1" fill-rule="nonzero"/></g><g clip-path="url(#23448c6ba9)"><path fill="#38b6ff" d="M 244.921875 29.523438 L 259.175781 29.523438 L 259.175781 58.027344 L 279.226562 58.027344 L 279.226562 72.101562 L 244.921875 72.101562 Z M 244.921875 29.523438 " fill-opacity="1" fill-rule="nonzero"/></g><path fill="#ffffff" d="M 187.554688 222.929688 L 222.09375 222.929688 L 218.835938 259.246094 L 187.554688 267.683594 L 187.554688 296.8125 L 245.054688 280.90625 L 245.472656 276.171875 L 252.070312 202.445312 L 252.753906 194.929688 L 187.554688 194.929688 Z M 187.554688 222.929688 " fill-opacity="1" fill-rule="nonzero"/><path fill="#ffffff" d="M 187.554688 166.179688 L 187.554688 166.25 L 255.300781 166.25 L 255.863281 159.953125 L 257.148438 145.757812 L 257.8125 138.242188 L 187.554688 138.242188 Z M 187.554688 166.179688 " fill-opacity="1" fill-rule="nonzero"/></svg>